# 3ds Max Wavefront OBJ Exporter v0.97b - (c)2007 guruware
# File Created: 08.12.2019 12:13:22

mtllib Fizz.mtl

#
# object Cylinder001
#

v  -1.505256 -0.146773 -0.153037
v  -1.425680 -0.142206 -0.008935
v  -1.345345 0.077033 -0.008935
v  -1.349799 0.080666 -0.153037
v  -1.149627 0.168847 -0.008935
v  -1.149627 0.174875 -0.153037
v  -0.953909 0.077033 -0.008935
v  -0.949456 0.080666 -0.153037
v  -0.873575 -0.142206 -0.008935
v  -0.793275 -0.146773 -0.153037
v  -0.953909 -0.361445 -0.008935
v  -0.949456 -0.374213 -0.153037
v  -1.149628 -0.453258 -0.008935
v  -1.149628 -0.468421 -0.153037
v  -1.345345 -0.361445 -0.008935
v  -1.349799 -0.374212 -0.153037
v  -0.756235 -0.148547 -0.970144
v  -0.852271 -0.268395 -0.970144
v  -0.860900 -0.149290 -0.970150
v  -1.393452 0.080666 -0.264665
v  -1.582795 -0.146773 -0.264665
v  -1.149647 0.174875 -0.264665
v  -0.905842 0.080666 -0.264665
v  -0.715618 -0.146773 -0.264665
v  -0.905842 -0.374213 -0.264665
v  -1.149647 -0.468421 -0.264665
v  -1.393452 -0.374212 -0.264665
v  -1.442733 0.080667 -0.407777
v  -1.670330 -0.146773 -0.407777
v  -1.149670 0.174875 -0.407777
v  -0.856606 0.080666 -0.407777
v  -0.627949 -0.146773 -0.407777
v  -0.856607 -0.374213 -0.407777
v  -1.149670 -0.468421 -0.407777
v  -1.442733 -0.374212 -0.407777
v  -1.471084 0.080667 -0.545476
v  -1.720690 -0.146773 -0.545476
v  -1.149682 0.174875 -0.545476
v  -0.828281 0.080666 -0.545476
v  -0.577513 -0.146773 -0.545476
v  -0.828281 -0.374213 -0.545476
v  -1.149682 -0.468421 -0.545476
v  -1.471084 -0.374212 -0.545476
v  -1.471084 0.080666 -0.637275
v  -1.717714 -0.149484 -0.637275
v  -1.149682 0.174875 -0.637275
v  -0.828281 0.080666 -0.637275
v  -0.577513 -0.146773 -0.637275
v  -0.828314 -0.374222 -0.637275
v  -1.149716 -0.468411 -0.637275
v  -1.473200 -0.372285 -0.637275
v  -1.245701 -0.396427 1.706281
v  -1.146194 -0.436060 1.691759
v  -1.046685 -0.396427 1.706285
v  -1.005842 -0.301787 1.740967
v  -1.046685 -0.207147 1.775647
v  -1.146194 -0.167513 1.790169
v  -1.245701 -0.207146 1.775644
v  -1.286545 -0.301787 1.740964
v  -1.398346 -0.142205 0.141961
v  -1.325966 0.077033 0.141961
v  -1.325966 -0.361444 0.141961
v  -1.149628 -0.453258 0.141961
v  -0.973289 -0.361445 0.141961
v  -0.900909 -0.142206 0.141961
v  -0.973289 0.077033 0.141961
v  -1.149627 0.168847 0.141961
v  -1.408255 -0.142205 0.277563
v  -1.332992 0.077034 0.277563
v  -1.332992 -0.361444 0.277563
v  -1.149628 -0.453258 0.277563
v  -0.966263 -0.361445 0.277563
v  -0.891000 -0.142206 0.277563
v  -0.966263 0.077033 0.277563
v  -1.149627 0.168847 0.277563
v  -1.364342 -0.142205 0.435429
v  -1.301819 0.028315 0.435429
v  -1.301819 -0.312726 0.435429
v  -1.149494 -0.384138 0.435429
v  -0.997170 -0.312726 0.435429
v  -0.934646 -0.142206 0.435429
v  -0.997170 0.028315 0.435429
v  -1.149494 0.099727 0.435429
v  -1.288246 -0.142205 0.561368
v  -1.246943 -0.035522 0.561368
v  -1.246943 -0.248889 0.561368
v  -1.146318 -0.293567 0.561368
v  -1.045692 -0.248889 0.561368
v  -1.004390 -0.142205 0.561368
v  -1.045692 -0.035522 0.561368
v  -1.146318 0.009156 0.561368
v  -1.225460 -0.139875 0.561986
v  -1.202393 -0.099508 0.565518
v  -1.202393 -0.180242 0.558454
v  -1.146197 -0.197147 0.556975
v  -1.090001 -0.180242 0.558455
v  -1.066935 -0.139875 0.561986
v  -1.090001 -0.099508 0.565518
v  -1.146197 -0.082602 0.566997
v  -1.229848 -0.143146 0.599381
v  -1.205503 -0.081602 0.604765
v  -1.205503 -0.204691 0.593997
v  -1.146191 -0.230465 0.591742
v  -1.086879 -0.204691 0.593997
v  -1.062535 -0.143146 0.599382
v  -1.086879 -0.081602 0.604766
v  -1.146191 -0.055828 0.607020
v  -1.647488 -0.148619 0.661936
v  -1.501605 0.220175 0.694200
v  -1.501605 -0.517412 0.629669
v  -1.146191 -0.671857 0.616159
v  -0.790778 -0.517413 0.629673
v  -0.644896 -0.148619 0.661938
v  -0.790778 0.220174 0.694204
v  -1.146191 0.374621 0.707714
v  -1.750005 -0.157948 0.768565
v  -1.574288 0.228687 0.802389
v  -1.574289 -0.544582 0.734737
v  -1.146192 -0.706498 0.720573
v  -0.718094 -0.544583 0.734741
v  -0.542379 -0.157948 0.768567
v  -0.718094 0.228685 0.802393
v  -1.146191 0.390603 0.816557
v  -1.815392 -0.171561 0.856701
v  -1.620647 0.215073 0.890526
v  -1.620648 -0.558195 0.822873
v  -1.146192 -0.720111 0.808709
v  -0.671736 -0.558196 0.822877
v  -0.476991 -0.171562 0.856703
v  -0.671736 0.215072 0.890530
v  -1.146191 0.376990 0.904693
v  -1.815392 -0.180783 0.916407
v  -1.620648 0.205851 0.950231
v  -1.620648 -0.567417 0.882578
v  -1.146192 -0.729334 0.868415
v  -0.671736 -0.567418 0.882583
v  -0.476992 -0.180784 0.916409
v  -0.671736 0.205850 0.950235
v  -1.146192 0.367767 0.964398
v  -1.791947 -0.183418 0.987898
v  -1.604025 0.161212 1.018048
v  -1.604025 -0.528048 0.957745
v  -1.146192 -0.672374 0.945120
v  -0.688359 -0.528049 0.957749
v  -0.500437 -0.183419 0.987900
v  -0.688358 0.161211 1.018052
v  -1.146192 0.305538 1.030676
v  -1.791947 -0.202302 1.110152
v  -1.604025 0.142329 1.140301
v  -1.604025 -0.546932 1.079999
v  -1.146192 -0.691257 1.067374
v  -0.688359 -0.546933 1.080003
v  -0.500437 -0.202302 1.110154
v  -0.688359 0.142328 1.140305
v  -1.146192 0.286655 1.152930
v  -1.775073 -0.217233 1.206818
v  -1.592062 0.136645 1.237776
v  -1.592063 -0.571110 1.175856
v  -1.146193 -0.719308 1.162892
v  -0.700322 -0.571111 1.175859
v  -0.517311 -0.217233 1.206820
v  -0.700322 0.136644 1.237780
v  -1.146192 0.284844 1.250744
v  -1.720683 -0.242703 1.371718
v  -1.553500 0.144679 1.405608
v  -1.553500 -0.630084 1.337824
v  -1.146193 -0.792314 1.323634
v  -0.738886 -0.630086 1.337829
v  -0.571703 -0.242704 1.371721
v  -0.738885 0.144677 1.405612
v  -1.146193 0.306908 1.419803
v  -1.645325 -0.266856 1.528089
v  -1.500072 0.069711 1.555671
v  -1.500072 -0.603423 1.500504
v  -1.146193 -0.744372 1.488955
v  -0.792314 -0.603424 1.500508
v  -0.647062 -0.266856 1.528091
v  -0.792313 0.069710 1.555674
v  -1.146193 0.210660 1.567223
v  -1.501399 -0.287235 1.668931
v  -1.398030 -0.047717 1.696337
v  -1.398030 -0.526751 1.641522
v  -1.146194 -0.627057 1.630046
v  -0.894356 -0.526752 1.641525
v  -0.790988 -0.287235 1.668933
v  -0.894356 -0.047718 1.696339
v  -1.146193 0.052589 1.707816
v  -1.566403 -0.156713 -0.983122
v  -1.449500 -0.030578 -0.983122
v  -1.442911 -0.156739 -0.983122
v  -0.965576 -0.355737 -0.970151
v  -0.995032 -0.149649 -0.970185
v  -1.288882 -0.354228 -0.969833
v  -1.444583 -0.279180 -0.983082
v  -1.277088 -0.157154 -0.983122
v  -0.964862 0.061313 -0.970150
v  -0.852226 -0.026532 -0.970144
v  -1.296478 0.046808 -0.983122
v  -1.453673 0.082589 -0.848506
v  -1.620802 -0.152643 -0.848506
v  -1.232775 0.150519 -0.848506
v  -1.149716 -0.150511 -0.637361
v  -1.232775 -0.153409 -0.848506
v  -1.222051 -0.446916 -0.821245
v  -1.444387 -0.380847 -0.848506
v  -0.849890 0.087003 -0.801329
v  -1.047269 0.144859 -0.801330
v  -0.695889 -0.147999 -0.801330
v  -0.849910 -0.380555 -0.801329
v  -1.047289 -0.438397 -0.801330
v  -1.047289 -0.150162 -0.801388
# 211 vertices

vn -0.757494 -0.001763 0.652840
vn -0.891995 0.004574 0.452023
vn -0.594294 0.801076 0.071354
vn -0.427657 0.895572 0.122722
vn 0.000015 0.999876 0.015774
vn 0.000000 0.999877 0.015694
vn 0.594296 0.801075 0.071353
vn 0.426805 0.896020 0.122417
vn 0.890771 0.004562 0.454430
vn 0.756172 -0.001749 0.654370
vn 0.595952 -0.797863 0.090856
vn 0.424202 -0.894179 0.143170
vn -0.000001 -0.999209 0.039758
vn -0.000000 -0.999229 0.039251
vn -0.595951 -0.797864 0.090859
vn -0.425042 -0.893733 0.143461
vn 0.689288 -0.005176 -0.724469
vn 0.285350 -0.492963 -0.821927
vn 0.000127 -0.000001 -1.000000
vn -0.385866 0.902620 0.190748
vn -0.761184 0.000000 0.648536
vn 0.000001 1.000000 0.000000
vn 0.384968 0.903134 0.190130
vn 0.760716 0.000000 0.649085
vn 0.384967 -0.903134 0.190130
vn -0.000001 -1.000000 0.000000
vn -0.385866 -0.902620 0.190747
vn -0.342293 0.930798 0.128262
vn -0.859191 0.000000 0.511655
vn 0.000000 1.000000 0.000000
vn 0.341365 0.931203 0.127795
vn 0.858894 -0.000000 0.512154
vn 0.341364 -0.931203 0.127794
vn -0.000000 -1.000000 0.000000
vn -0.342294 -0.930797 0.128262
vn -0.324684 0.944703 0.046005
vn -0.983507 0.006842 0.180742
vn 0.323714 0.945045 0.045823
vn 0.979438 -0.000000 0.201745
vn 0.323737 -0.945039 0.045785
vn 0.000019 -1.000000 -0.000041
vn -0.323120 -0.945368 0.043274
vn -0.323029 0.946273 -0.014819
vn -0.965886 -0.010562 -0.258751
vn 0.030752 0.950502 -0.309193
vn 0.320484 0.947132 -0.015176
vn 0.948782 0.000463 -0.315931
vn 0.320422 -0.947153 -0.015204
vn 0.029504 -0.950546 -0.309180
vn -0.324262 -0.945789 -0.018365
vn -0.021324 -0.476122 0.879120
vn -0.000014 -0.412891 0.910780
vn 0.021304 -0.476117 0.879124
vn 0.163411 -0.423636 0.890971
vn 0.171386 -0.079541 0.981988
vn -0.000013 0.062806 0.998026
vn -0.171404 -0.079538 0.981985
vn -0.163404 -0.423638 0.890972
vn -0.997249 0.000000 0.074124
vn -0.596866 0.801781 0.029990
vn -0.596866 -0.801780 0.029991
vn -0.000001 -1.000000 -0.000000
vn 0.596866 -0.801780 0.029992
vn 0.997249 0.000000 0.074124
vn 0.596867 0.801779 0.029992
vn 0.000000 1.000000 -0.000000
vn -0.992730 -0.000000 0.120361
vn -0.608875 0.781042 0.138723
vn -0.608875 -0.781042 0.138723
vn -0.000065 -0.988012 0.154375
vn 0.608798 -0.781205 0.138144
vn 0.992837 -0.000000 0.119475
vn 0.608799 0.781205 0.138144
vn -0.000096 0.988012 0.154374
vn -0.881551 0.000000 0.472089
vn -0.533175 0.728894 0.429464
vn -0.533175 -0.728893 0.429464
vn -0.001694 -0.920416 0.390936
vn 0.534701 -0.735187 0.416648
vn 0.889960 0.000000 0.456039
vn 0.534702 0.735187 0.416647
vn -0.001693 0.920417 0.390935
vn -0.547291 -0.000014 0.836943
vn -0.303140 0.491874 0.816190
vn -0.283385 -0.468395 0.836839
vn 0.002966 -0.544589 0.838698
vn 0.294653 -0.473769 0.829893
vn 0.567296 -0.000014 0.823514
vn 0.314210 0.497180 0.808754
vn 0.002826 0.594361 0.804194
vn -0.478752 -0.112938 0.870656
vn -0.383937 0.673272 0.631900
vn -0.344878 -0.691883 0.634316
vn -0.000085 -0.843732 0.536764
vn 0.344757 -0.691943 0.634317
vn 0.478926 -0.112933 0.870561
vn 0.384008 0.673400 0.631720
vn 0.000035 0.852303 0.523048
vn -0.524905 0.105106 -0.844646
vn -0.274312 0.544864 -0.792386
vn -0.292107 -0.372314 -0.880940
vn 0.000013 -0.438723 -0.898622
vn 0.292099 -0.372230 -0.880978
vn 0.524755 0.105114 -0.844739
vn 0.274305 0.544796 -0.792435
vn 0.000013 0.605607 -0.795764
vn -0.459317 0.094421 -0.883240
vn -0.293881 0.637994 -0.711757
vn -0.303544 -0.491969 -0.815983
vn 0.000003 -0.685788 -0.727801
vn 0.303546 -0.491973 -0.815980
vn 0.459318 0.094422 -0.883239
vn 0.293884 0.637996 -0.711753
vn 0.000003 0.805547 -0.592532
vn -0.679370 0.086531 -0.728676
vn -0.453519 0.829569 -0.325785
vn -0.463390 -0.739931 -0.487618
vn -0.000024 -0.983905 -0.178694
vn 0.463390 -0.739932 -0.487616
vn 0.679371 0.086531 -0.728675
vn 0.453520 0.829569 -0.325784
vn -0.000028 0.999990 0.004492
vn -0.943189 0.038307 -0.330040
vn -0.524125 0.847241 -0.086461
vn -0.524125 -0.804815 -0.278508
vn -0.000000 -0.993311 -0.115470
vn 0.524140 -0.804811 -0.278490
vn 0.943184 0.038368 -0.330047
vn 0.524140 0.847233 -0.086446
vn 0.000001 0.993311 0.115469
vn -0.981531 -0.033755 0.188299
vn -0.489945 0.816898 0.304354
vn -0.478150 -0.863322 0.161391
vn -0.000001 -0.982739 0.184997
vn 0.478149 -0.863322 0.161394
vn 0.981535 -0.033752 0.188283
vn 0.489927 0.816903 0.304369
vn -0.000001 0.936473 0.350740
vn -0.974130 -0.001230 0.225983
vn -0.450088 0.832919 0.321974
vn -0.449295 -0.873106 0.189263
vn -0.000012 -0.978425 0.206602
vn 0.449313 -0.873100 0.189248
vn 0.974130 -0.001229 0.225986
vn 0.450123 0.832910 0.321949
vn 0.000000 0.931396 0.364007
vn -0.994111 -0.012513 0.107640
vn -0.486411 0.866667 0.110869
vn -0.486411 -0.868989 -0.090899
vn 0.000010 -0.986102 -0.166139
vn 0.486412 -0.868989 -0.090896
vn 0.994111 -0.012513 0.107643
vn 0.486412 0.866667 0.110869
vn 0.000001 0.997918 0.064495
vn -0.952816 -0.035050 0.301519
vn -0.499972 0.856910 0.125432
vn -0.499973 -0.862832 -0.074485
vn -0.000000 -0.962564 -0.271055
vn 0.499973 -0.862832 -0.074482
vn 0.952816 -0.035051 0.301519
vn 0.499973 0.856909 0.125433
vn 0.000001 0.999074 -0.043019
vn -0.888272 -0.053037 0.456246
vn -0.511139 0.801844 0.309489
vn -0.511472 -0.851818 0.113149
vn -0.000000 -0.998240 -0.059296
vn 0.511472 -0.851818 0.113151
vn 0.888269 -0.053038 0.456250
vn 0.511139 0.801842 0.309493
vn -0.000000 0.984361 0.176164
vn -0.760390 -0.072120 0.645450
vn -0.448897 0.650669 0.612471
vn -0.444502 -0.763081 0.469174
vn -0.000002 -0.930164 0.367144
vn 0.444502 -0.763080 0.469177
vn 0.760388 -0.072119 0.645452
vn 0.448896 0.650667 0.612474
vn -0.000001 0.840893 0.541202
vn -0.486631 -0.124096 0.864749
vn -0.322078 0.440088 0.838205
vn -0.255457 -0.584540 0.770100
vn -0.000004 -0.676699 0.736260
vn 0.255455 -0.584540 0.770101
vn 0.486632 -0.124095 0.864748
vn 0.322077 0.440089 0.838205
vn -0.000002 0.631855 0.775087
vn -0.677407 -0.027154 -0.735107
vn -0.218271 0.478183 -0.850705
vn -0.000000 -0.000216 -1.000000
vn -0.137294 -0.666907 -0.732384
vn -0.610616 0.000264 -0.791927
vn 0.276550 -0.591194 -0.757634
vn -0.186843 -0.503357 -0.843636
vn 0.570947 -0.017661 -0.820797
vn -0.133554 0.667402 -0.732624
vn 0.288485 0.490279 -0.822437
vn 0.236718 0.535244 -0.810850
vn -0.374429 0.885657 -0.274618
vn -0.862683 -0.023076 -0.505218
vn 0.485718 0.747119 -0.453752
vn 0.105609 -0.000014 -0.994408
vn 0.901355 0.002602 -0.433073
vn 0.505059 -0.748956 -0.428930
vn -0.339169 -0.904052 -0.260104
vn 0.385976 0.892861 -0.231996
vn -0.437116 0.759360 -0.481977
vn 0.791576 -0.004424 -0.611054
vn 0.384238 -0.894147 -0.229919
vn -0.437793 -0.759845 -0.480597
vn -0.855634 0.000050 -0.517581
# 210 vertex normals

vt 0.750000 0.014352 1.000000
vt 0.750000 0.000000 1.000000
vt 0.875000 0.000000 1.000000
vt 0.875000 0.014352 1.000000
vt -0.125000 0.014352 1.000000
vt -0.125000 0.000000 1.000000
vt 0.000000 0.000000 1.000000
vt 0.000000 0.014352 1.000000
vt 0.125000 0.000000 1.000000
vt 0.125000 0.014352 1.000000
vt 0.250000 0.000000 1.000000
vt 0.250000 0.014352 1.000000
vt 0.375000 0.000000 1.000000
vt 0.375000 0.014352 1.000000
vt 0.500000 0.000000 1.000000
vt 0.500000 0.014352 1.000000
vt 0.625000 0.000000 1.000000
vt 0.625000 0.014352 1.000000
vt 0.251452 0.014352 1.000000
vt 0.254357 0.014352 1.000000
vt 0.252904 0.014352 1.000000
# 21 texture coords

o Cylinder001
g Cylinder001
usemtl wire_086086086
s off
f 1/1/1 2/2/2 3/3/3 4/4/4 
f 4/5/4 3/6/3 5/7/5 6/8/6 
f 6/8/6 5/7/5 7/9/7 8/10/8 
f 8/10/8 7/9/7 9/11/9 10/12/10 
f 10/12/10 9/11/9 11/13/11 12/14/12 
f 12/14/12 11/13/11 13/15/13 14/16/14 
f 14/16/14 13/15/13 15/17/15 16/18/16 
f 16/18/16 15/17/15 2/2/2 1/1/1 
f 17/12/17 18/14/18 19/19/19 
f 1/1/1 4/5/4 20/5/20 21/1/21 
f 4/5/4 6/8/6 22/8/22 20/5/20 
f 6/8/6 8/10/8 23/10/23 22/8/22 
f 8/10/8 10/12/10 24/12/24 23/10/23 
f 10/12/10 12/14/12 25/14/25 24/12/24 
f 12/14/12 14/16/14 26/16/26 25/14/25 
f 14/16/14 16/18/16 27/18/27 26/16/26 
f 16/18/16 1/1/1 21/1/21 27/18/27 
f 21/1/21 20/5/20 28/5/28 29/1/29 
f 20/5/20 22/8/22 30/8/30 28/5/28 
f 22/8/22 23/10/23 31/10/31 30/8/30 
f 23/10/23 24/12/24 32/12/32 31/10/31 
f 24/12/24 25/14/25 33/14/33 32/12/32 
f 25/14/25 26/16/26 34/16/34 33/14/33 
f 26/16/26 27/18/27 35/18/35 34/16/34 
f 27/18/27 21/1/21 29/1/29 35/18/35 
f 29/1/29 28/5/28 36/5/36 37/1/37 
f 28/5/28 30/8/30 38/8/30 36/5/36 
f 30/8/30 31/10/31 39/10/38 38/8/30 
f 31/10/31 32/12/32 40/12/39 39/10/38 
f 32/12/32 33/14/33 41/14/40 40/12/39 
f 33/14/33 34/16/34 42/16/41 41/14/40 
f 34/16/34 35/18/35 43/18/42 42/16/41 
f 35/18/35 29/1/29 37/1/37 43/18/42 
f 37/1/37 36/5/36 44/5/43 45/1/44 
f 36/5/36 38/8/30 46/8/45 44/5/43 
f 38/8/30 39/10/38 47/10/46 46/8/45 
f 39/10/38 40/12/39 48/12/47 47/10/46 
f 40/12/39 41/14/40 49/14/48 48/12/47 
f 41/14/40 42/16/41 50/16/49 49/14/48 
f 42/16/41 43/18/42 51/18/50 50/16/49 
f 43/18/42 37/1/37 45/1/44 51/18/50 
f 52/17/51 53/15/52 54/13/53 55/11/54 56/9/55 57/7/56 58/6/57 59/2/58 
f 3/6/3 2/2/2 60/2/59 61/6/60 
f 2/2/2 15/17/15 62/17/61 60/2/59 
f 15/17/15 13/15/13 63/15/62 62/17/61 
f 13/15/13 11/13/11 64/13/63 63/15/62 
f 11/13/11 9/11/9 65/11/64 64/13/63 
f 9/11/9 7/9/7 66/9/65 65/11/64 
f 7/9/7 5/7/5 67/7/66 66/9/65 
f 5/7/5 3/6/3 61/6/60 67/7/66 
f 61/6/60 60/2/59 68/2/67 69/6/68 
f 60/2/59 62/17/61 70/17/69 68/2/67 
f 62/17/61 63/15/62 71/15/70 70/17/69 
f 63/15/62 64/13/63 72/13/71 71/15/70 
f 64/13/63 65/11/64 73/11/72 72/13/71 
f 65/11/64 66/9/65 74/9/73 73/11/72 
f 66/9/65 67/7/66 75/7/74 74/9/73 
f 67/7/66 61/6/60 69/6/68 75/7/74 
f 69/6/68 68/2/67 76/2/75 77/6/76 
f 68/2/67 70/17/69 78/17/77 76/2/75 
f 70/17/69 71/15/70 79/15/78 78/17/77 
f 71/15/70 72/13/71 80/13/79 79/15/78 
f 72/13/71 73/11/72 81/11/80 80/13/79 
f 73/11/72 74/9/73 82/9/81 81/11/80 
f 74/9/73 75/7/74 83/7/82 82/9/81 
f 75/7/74 69/6/68 77/6/76 83/7/82 
f 77/6/76 76/2/75 84/2/83 85/6/84 
f 76/2/75 78/17/77 86/17/85 84/2/83 
f 78/17/77 79/15/78 87/15/86 86/17/85 
f 79/15/78 80/13/79 88/13/87 87/15/86 
f 80/13/79 81/11/80 89/11/88 88/13/87 
f 81/11/80 82/9/81 90/9/89 89/11/88 
f 82/9/81 83/7/82 91/7/90 90/9/89 
f 83/7/82 77/6/76 85/6/84 91/7/90 
f 85/6/84 84/2/83 92/2/91 93/6/92 
f 84/2/83 86/17/85 94/17/93 92/2/91 
f 86/17/85 87/15/86 95/15/94 94/17/93 
f 87/15/86 88/13/87 96/13/95 95/15/94 
f 88/13/87 89/11/88 97/11/96 96/13/95 
f 89/11/88 90/9/89 98/9/97 97/11/96 
f 90/9/89 91/7/90 99/7/98 98/9/97 
f 91/7/90 85/6/84 93/6/92 99/7/98 
f 93/6/92 92/2/91 100/2/99 101/6/100 
f 92/2/91 94/17/93 102/17/101 100/2/99 
f 94/17/93 95/15/94 103/15/102 102/17/101 
f 95/15/94 96/13/95 104/13/103 103/15/102 
f 96/13/95 97/11/96 105/11/104 104/13/103 
f 97/11/96 98/9/97 106/9/105 105/11/104 
f 98/9/97 99/7/98 107/7/106 106/9/105 
f 99/7/98 93/6/92 101/6/100 107/7/106 
f 101/6/100 100/2/99 108/2/107 109/6/108 
f 100/2/99 102/17/101 110/17/109 108/2/107 
f 102/17/101 103/15/102 111/15/110 110/17/109 
f 103/15/102 104/13/103 112/13/111 111/15/110 
f 104/13/103 105/11/104 113/11/112 112/13/111 
f 105/11/104 106/9/105 114/9/113 113/11/112 
f 106/9/105 107/7/106 115/7/114 114/9/113 
f 107/7/106 101/6/100 109/6/108 115/7/114 
f 109/6/108 108/2/107 116/2/115 117/6/116 
f 108/2/107 110/17/109 118/17/117 116/2/115 
f 110/17/109 111/15/110 119/15/118 118/17/117 
f 111/15/110 112/13/111 120/13/119 119/15/118 
f 112/13/111 113/11/112 121/11/120 120/13/119 
f 113/11/112 114/9/113 122/9/121 121/11/120 
f 114/9/113 115/7/114 123/7/122 122/9/121 
f 115/7/114 109/6/108 117/6/116 123/7/122 
f 117/6/116 116/2/115 124/2/123 125/6/124 
f 116/2/115 118/17/117 126/17/125 124/2/123 
f 118/17/117 119/15/118 127/15/126 126/17/125 
f 119/15/118 120/13/119 128/13/127 127/15/126 
f 120/13/119 121/11/120 129/11/128 128/13/127 
f 121/11/120 122/9/121 130/9/129 129/11/128 
f 122/9/121 123/7/122 131/7/130 130/9/129 
f 123/7/122 117/6/116 125/6/124 131/7/130 
f 125/6/124 124/2/123 132/2/131 133/6/132 
f 124/2/123 126/17/125 134/17/133 132/2/131 
f 126/17/125 127/15/126 135/15/134 134/17/133 
f 127/15/126 128/13/127 136/13/135 135/15/134 
f 128/13/127 129/11/128 137/11/136 136/13/135 
f 129/11/128 130/9/129 138/9/137 137/11/136 
f 130/9/129 131/7/130 139/7/138 138/9/137 
f 131/7/130 125/6/124 133/6/132 139/7/138 
f 133/6/132 132/2/131 140/2/139 141/6/140 
f 132/2/131 134/17/133 142/17/141 140/2/139 
f 134/17/133 135/15/134 143/15/142 142/17/141 
f 135/15/134 136/13/135 144/13/143 143/15/142 
f 136/13/135 137/11/136 145/11/144 144/13/143 
f 137/11/136 138/9/137 146/9/145 145/11/144 
f 138/9/137 139/7/138 147/7/146 146/9/145 
f 139/7/138 133/6/132 141/6/140 147/7/146 
f 141/6/140 140/2/139 148/2/147 149/6/148 
f 140/2/139 142/17/141 150/17/149 148/2/147 
f 142/17/141 143/15/142 151/15/150 150/17/149 
f 143/15/142 144/13/143 152/13/151 151/15/150 
f 144/13/143 145/11/144 153/11/152 152/13/151 
f 145/11/144 146/9/145 154/9/153 153/11/152 
f 146/9/145 147/7/146 155/7/154 154/9/153 
f 147/7/146 141/6/140 149/6/148 155/7/154 
f 149/6/148 148/2/147 156/2/155 157/6/156 
f 148/2/147 150/17/149 158/17/157 156/2/155 
f 150/17/149 151/15/150 159/15/158 158/17/157 
f 151/15/150 152/13/151 160/13/159 159/15/158 
f 152/13/151 153/11/152 161/11/160 160/13/159 
f 153/11/152 154/9/153 162/9/161 161/11/160 
f 154/9/153 155/7/154 163/7/162 162/9/161 
f 155/7/154 149/6/148 157/6/156 163/7/162 
f 157/6/156 156/2/155 164/2/163 165/6/164 
f 156/2/155 158/17/157 166/17/165 164/2/163 
f 158/17/157 159/15/158 167/15/166 166/17/165 
f 159/15/158 160/13/159 168/13/167 167/15/166 
f 160/13/159 161/11/160 169/11/168 168/13/167 
f 161/11/160 162/9/161 170/9/169 169/11/168 
f 162/9/161 163/7/162 171/7/170 170/9/169 
f 163/7/162 157/6/156 165/6/164 171/7/170 
f 165/6/164 164/2/163 172/2/171 173/6/172 
f 164/2/163 166/17/165 174/17/173 172/2/171 
f 166/17/165 167/15/166 175/15/174 174/17/173 
f 167/15/166 168/13/167 176/13/175 175/15/174 
f 168/13/167 169/11/168 177/11/176 176/13/175 
f 169/11/168 170/9/169 178/9/177 177/11/176 
f 170/9/169 171/7/170 179/7/178 178/9/177 
f 171/7/170 165/6/164 173/6/172 179/7/178 
f 173/6/172 172/2/171 180/2/179 181/6/180 
f 172/2/171 174/17/173 182/17/181 180/2/179 
f 174/17/173 175/15/174 183/15/182 182/17/181 
f 175/15/174 176/13/175 184/13/183 183/15/182 
f 176/13/175 177/11/176 185/11/184 184/13/183 
f 177/11/176 178/9/177 186/9/185 185/11/184 
f 178/9/177 179/7/178 187/7/186 186/9/185 
f 179/7/178 173/6/172 181/6/180 187/7/186 
f 181/6/180 180/2/179 59/2/58 58/6/57 
f 180/2/179 182/17/181 52/17/51 59/2/58 
f 182/17/181 183/15/182 53/15/52 52/17/51 
f 183/15/182 184/13/183 54/13/53 53/15/52 
f 184/13/183 185/11/184 55/11/54 54/13/53 
f 185/11/184 186/9/185 56/9/55 55/11/54 
f 186/9/185 187/7/186 57/7/56 56/9/55 
f 187/7/186 181/6/180 58/6/57 57/7/56 
f 188/1/187 189/5/188 190/20/189 
f 18/14/18 191/16/190 192/21/191 19/19/19 
f 193/16/192 194/18/193 190/20/189 195/21/194 
f 192/21/191 196/8/195 197/10/196 19/19/19 
f 190/20/189 189/5/188 198/8/197 195/21/194 
f 19/19/19 197/10/196 17/12/17 
f 190/20/189 194/18/193 188/1/187 
f 45/1/44 44/5/43 199/5/198 200/1/199 
f 44/5/43 46/8/45 201/8/200 199/5/198 
f 46/8/45 202/21/201 203/21/202 201/8/200 
f 202/21/201 50/16/49 204/16/203 203/21/202 
f 50/16/49 51/18/50 205/18/204 204/16/203 
f 51/18/50 45/1/44 200/1/199 205/18/204 
f 200/1/199 199/5/198 189/5/188 188/1/187 
f 199/5/198 201/8/200 198/8/197 189/5/188 
f 201/8/200 203/21/202 195/21/194 198/8/197 
f 203/21/202 204/16/203 193/16/192 195/21/194 
f 204/16/203 205/18/204 194/18/193 193/16/192 
f 205/18/204 200/1/199 188/1/187 194/18/193 
f 46/8/45 47/10/46 206/10/205 207/8/206 
f 47/10/46 48/12/47 208/12/207 206/10/205 
f 48/12/47 49/14/48 209/14/208 208/12/207 
f 49/14/48 50/16/49 210/16/209 209/14/208 
f 50/16/49 202/21/201 211/21/210 210/16/209 
f 202/21/201 46/8/45 207/8/206 211/21/210 
f 207/8/206 206/10/205 197/10/196 196/8/195 
f 206/10/205 208/12/207 17/12/17 197/10/196 
f 208/12/207 209/14/208 18/14/18 17/12/17 
f 209/14/208 210/16/209 191/16/190 18/14/18 
f 210/16/209 211/21/210 192/21/191 191/16/190 
f 211/21/210 207/8/206 196/8/195 192/21/191 
# 205 polygons - 4 triangles

